<svg xmlns="http://www.w3.org/2000/svg" width="256.1" height="34.1" viewBox="0 0 256.1 34.1"><g fill="#fff"><path d="M4.1 10.9H0v5.5h4.1v16.3h6.8V16.4h5l.5-5.5h-5.5V8.7c0-1.4.3-1.9 1.5-1.9h4V0h-5.2C6.3 0 4.1 2.2 4.1 6.3zm76.3-2.3a16.6 16.6 0 0 1-3.8 1.1A7.6 7.6 0 0 0 79.5 6a13.1 13.1 0 0 1-4.3 1.6 6.8 6.8 0 0 0-9.5-.3 6.6 6.6 0 0 0-1.9 6.4 19 19 0 0 1-13.8-7 6.8 6.8 0 0 0 2 9 8 8 0 0 1-3-.9 6.7 6.7 0 0 0 5.4 6.7 6.1 6.1 0 0 1-3 .1 6.8 6.8 0 0 0 6.2 4.7 13.6 13.6 0 0 1-9.9 2.8A19.5 19.5 0 0 0 58 32a18.8 18.8 0 0 0 19-19.9 11.4 11.4 0 0 0 3.4-3.5zm42.2-4.2h6.6c4.5.2 6.5 2.3 6.8 6.7v13.2c-.3 4.4-2.3 6.5-6.8 6.7H116c-4.4-.2-6.5-2.3-6.7-6.7 0-1.7-.1-2.3-.1-6.6s.1-4.9.1-6.6c.2-4.4 2.3-6.5 6.7-6.7zm0-3h-6.7c-6 .3-9.2 3.5-9.5 9.5-.1 1.7-.1 2.3-.1 6.7s0 5.1.1 6.8c.3 5.9 3.5 9.2 9.5 9.5h13.5c5.9-.3 9.2-3.6 9.5-9.5 0-1.7.1-2.3.1-6.8s-.1-4.9-.1-6.7c-.3-5.9-3.6-9.2-9.5-9.5zm0 7.9a8.5 8.5 0 1 0 8.4 8.5 8.5 8.5 0 0 0-8.4-8.5zm0 13.9a5.5 5.5 0 1 1 5.5-5.5 5.4 5.4 0 0 1-5.5 5.5zM131.4 7a2 2 0 0 0-2 2 1.9 1.9 0 0 0 1.9 2h.1a2 2 0 0 0 1.9-2 2.1 2.1 0 0 0-1.9-2zm60.2-1.2a180.4 180.4 0 0 0-20.8 0c-5.3.3-5.9 3.5-6 11.9s.7 11.7 6 12a180.4 180.4 0 0 0 20.8 0c5.3-.3 5.9-3.5 5.9-12s-.6-11.6-5.9-11.9zm-14.5 17.4V12.3l10.9 5.4z"/><path fill-rule="evenodd" d="M239.8 1.4a16.3 16.3 0 0 0-6 31.5 14.2 14.2 0 0 1 .1-4.6l1.9-8.1a7 7 0 0 1-.5-2.5c0-2.3 1.4-4 3-4a2.2 2.2 0 0 1 2.1 2.1v.3c0 1.3-1 3.5-1.4 5.4a2.4 2.4 0 0 0 1.7 2.9h.7c3 0 5.2-3.1 5.2-7.5a6.6 6.6 0 0 0-6.3-6.7h-.5a7.2 7.2 0 0 0-7.4 6.8v.3a6.4 6.4 0 0 0 1.2 3.8.7.7 0 0 1 .1.5l-.5 1.8c0 .3-.2.3-.5.2-2-.9-3.3-3.9-3.3-6.3 0-5.2 3.7-9.9 10.8-9.9s10 4 10 9.4-3.5 10.2-8.4 10.2a4.2 4.2 0 0 1-3.8-1.9l-1 3.9a21.1 21.1 0 0 1-2 4.3 16.322 16.322 0 0 0 9.6-31.2 15.6 15.6 0 0 0-4.8-.8z"/></g></svg>